<svg width="28" height="28" viewBox="0 0 28 28" fill="none" xmlns="http://www.w3.org/2000/svg">
<path d="M14.9195 22.439L15.5629 20.181H16.4253V13.8969L7.50063 23.6795V27.9926L11.9586 23.1027H14.0166C14.0166 23.1027 14.7325 23.1752 14.9195 22.439ZM11.447 8.39258H3.00208V23.1027H6.98034L16.1528 13.0462L11.447 8.39258ZM8.42092 13.4984H7.10642V14.8114H5.95135V13.4984H4.64121V12.3433H5.95135V11.0332H7.10642V12.3433H8.42092V13.4984ZM15.4122 17.1143L14.7571 17.7737L14.0992 17.1143H15.4122ZM20.7934 18.9201H23.847V15.91L25.4615 13.4129H18.9905L20.7934 15.91V18.9201ZM24.0021 19.3187H20.3499V18.4477L12.0064 27.8491H16.4238L20.7716 22.8303H24.0021V22.3491H24.0064V19.5752H24.0021V19.3187ZM20.7963 26.8085L22.3224 27.9955L23.847 26.8085V23.2245H20.7963V26.8085Z" fill="white"/>
<path fill-rule="evenodd" clip-rule="evenodd" d="M18.5309 4.68261C18.5034 4.66957 18.4628 4.66232 18.4338 4.64928C13.2759 3.32319 12.9628 0.878261 13.0976 0C12.7353 1.00435 12.7643 2.97826 13.1498 4.16232C13.7686 4.77971 15.8222 5.68261 17.8034 5.87826C18.0194 5.90725 18.2266 5.94783 18.4338 5.98841C23.6324 6.96812 24.0672 11.2072 22.1759 13.258C22.3831 12.8667 24.5643 8.45797 19.215 7.55507C18.9512 7.51304 18.7063 7.46957 18.4788 7.42899C14.6962 6.72899 14.3541 6.16377 14.1672 6.10145C14.0165 6.74928 14.9527 10.2594 18.4788 10.7029H18.5078C21.8179 11.1014 22.1396 12.7449 22.1599 13.2783C22.1599 13.2812 22.1599 13.285 22.1599 13.2899C22.1599 13.2899 22.1643 13.2826 22.1686 13.2739C23.1237 12.5913 23.7295 11.358 23.786 10.0275V9.65797C23.6976 7.57102 22.2251 5.34928 18.5309 4.68261Z" fill="white"/>
</svg>
