<svg width="16" height="16" viewBox="0 0 16 16" fill="none" xmlns="http://www.w3.org/2000/svg">
<g clip-path="url(#clip0_11367_5015)">
<path d="M15.9766 0.0234375V5.31055H0.0234375V0.0234375H15.9766Z" fill="#FF9933" stroke="#1A1A1A" stroke-width="0.046875"/>
<path d="M15.9766 5.35742V10.6416H0.0234375V5.35742H15.9766Z" fill="white" stroke="#1A1A1A" stroke-width="0.046875"/>
<path d="M0 10.666H16V16.0004H0V10.666Z" fill="#128807"/>
<path d="M8.00113 10.1329C9.17934 10.1329 10.1345 9.17775 10.1345 7.99954C10.1345 6.82134 9.17934 5.86621 8.00113 5.86621C6.82292 5.86621 5.8678 6.82134 5.8678 7.99954C5.8678 9.17775 6.82292 10.1329 8.00113 10.1329Z" fill="#000088"/>
<path d="M8.00143 9.86614C9.03236 9.86614 9.8681 9.03041 9.8681 7.99948C9.8681 6.96855 9.03236 6.13281 8.00143 6.13281C6.9705 6.13281 6.13477 6.96855 6.13477 7.99948C6.13477 9.03041 6.9705 9.86614 8.00143 9.86614Z" fill="white"/>
<path d="M8.00157 8.37264C8.20775 8.37264 8.3749 8.2055 8.3749 7.99931C8.3749 7.79312 8.20775 7.62598 8.00157 7.62598C7.79538 7.62598 7.62823 7.79312 7.62823 7.99931C7.62823 8.2055 7.79538 8.37264 8.00157 8.37264Z" fill="#000088"/>
<path d="M9.84038 8.33961C9.89295 8.34653 9.94117 8.30952 9.94809 8.25696C9.95501 8.20439 9.91801 8.15617 9.86544 8.14925C9.81288 8.14233 9.76465 8.17933 9.75773 8.2319C9.75081 8.28446 9.78782 8.33269 9.84038 8.33961Z" fill="#000088"/>
<path d="M8.00223 9.86622L8.06623 8.74622L8.00223 8.21289L7.93823 8.74622L8.00223 9.86622Z" fill="#000088"/>
<path d="M9.69301 8.80397C9.742 8.82426 9.79815 8.80099 9.81844 8.75201C9.83873 8.70303 9.81547 8.64687 9.76649 8.62658C9.7175 8.60629 9.66135 8.62955 9.64106 8.67854C9.62077 8.72752 9.64403 8.78368 9.69301 8.80397Z" fill="#000088"/>
<path d="M7.52264 9.80301L7.87433 8.73774L7.95055 8.20602L7.7507 8.70461L7.52264 9.80301Z" fill="#000088"/>
<path d="M9.42608 9.21272C9.46814 9.24499 9.5284 9.23706 9.56068 9.195C9.59296 9.15293 9.58502 9.09267 9.54296 9.06039C9.5009 9.02812 9.44063 9.03605 9.40836 9.07811C9.37608 9.12018 9.38401 9.18044 9.42608 9.21272Z" fill="#000088"/>
<path d="M7.07056 9.61617L7.68598 8.67822L7.89722 8.18434L7.57513 8.61422L7.07056 9.61617Z" fill="#000088"/>
<path d="M9.06109 9.53972C9.09336 9.58179 9.15363 9.58972 9.19569 9.55744C9.23775 9.52517 9.24569 9.4649 9.21341 9.42284C9.18113 9.38078 9.12087 9.37284 9.07881 9.40512C9.03674 9.4374 9.02881 9.49766 9.06109 9.53972Z" fill="#000088"/>
<path d="M6.68153 9.31883L7.51875 8.57213L7.85061 8.14975L7.42824 8.48162L6.68153 9.31883Z" fill="#000088"/>
<path d="M8.62888 9.7608C8.64917 9.80978 8.70533 9.83304 8.75431 9.81276C8.8033 9.79247 8.82656 9.73631 8.80627 9.68733C8.78598 9.63834 8.72982 9.61508 8.68084 9.63537C8.63186 9.65566 8.60859 9.71182 8.62888 9.7608Z" fill="#000088"/>
<path d="M6.38728 8.9319L7.38923 8.42732L7.81911 8.10523L7.32523 8.31647L6.38728 8.9319Z" fill="#000088"/>
<path d="M8.14835 9.86243C8.15527 9.91499 8.20349 9.952 8.25605 9.94508C8.30862 9.93815 8.34562 9.88993 8.3387 9.83737C8.33178 9.7848 8.28356 9.7478 8.23099 9.75472C8.17843 9.76164 8.14142 9.80986 8.14835 9.86243Z" fill="#000088"/>
<path d="M6.19758 8.4829L7.29598 8.25484L7.79458 8.05498L7.26286 8.1312L6.19758 8.4829Z" fill="#000088"/>
<path d="M7.6643 9.8377C7.65738 9.89026 7.69438 9.93848 7.74695 9.9454C7.79951 9.95233 7.84774 9.91532 7.85466 9.86276C7.86158 9.81019 7.82457 9.76197 7.77201 9.75505C7.71944 9.74813 7.67122 9.78513 7.6643 9.8377Z" fill="#000088"/>
<path d="M6.13701 7.99955L7.25701 8.06355L7.79034 7.99955L7.25701 7.93555L6.13701 7.99955Z" fill="#000088"/>
<path d="M7.20128 9.68807C7.18099 9.73705 7.20425 9.79321 7.25324 9.8135C7.30222 9.83379 7.35838 9.81053 7.37867 9.76154C7.39896 9.71256 7.3757 9.6564 7.32671 9.63611C7.27773 9.61582 7.22157 9.63909 7.20128 9.68807Z" fill="#000088"/>
<path d="M6.20156 7.51672L7.26684 7.86841L7.79856 7.94463L7.29996 7.74478L6.20156 7.51672Z" fill="#000088"/>
<path d="M6.79381 9.42217C6.76154 9.46423 6.76947 9.5245 6.81153 9.55677C6.8536 9.58905 6.91386 9.58112 6.94614 9.53905C6.97841 9.49699 6.97048 9.43673 6.92842 9.40445C6.88635 9.37217 6.82609 9.38011 6.79381 9.42217Z" fill="#000088"/>
<path d="M6.39036 7.06665L7.32831 7.68208L7.82219 7.89332L7.39231 7.57122L6.39036 7.06665Z" fill="#000088"/>
<path d="M6.46455 9.05944C6.42249 9.09171 6.41455 9.15198 6.44683 9.19404C6.4791 9.2361 6.53937 9.24404 6.58143 9.21176C6.62349 9.17949 6.63143 9.11922 6.59915 9.07716C6.56688 9.0351 6.50661 9.02716 6.46455 9.05944Z" fill="#000088"/>
<path d="M6.68483 6.67988L7.43154 7.5171L7.85392 7.84897L7.52205 7.42659L6.68483 6.67988Z" fill="#000088"/>
<path d="M6.24146 8.62498C6.19247 8.64527 6.16921 8.70142 6.1895 8.75041C6.20979 8.79939 6.26595 8.82265 6.31493 8.80236C6.36392 8.78207 6.38718 8.72592 6.36689 8.67693C6.3466 8.62795 6.29044 8.60469 6.24146 8.62498Z" fill="#000088"/>
<path d="M7.06969 6.38338L7.57426 7.38532L7.89636 7.8152L7.68512 7.32132L7.06969 6.38338Z" fill="#000088"/>
<path d="M6.14343 8.14737C6.09087 8.15429 6.05386 8.20251 6.06078 8.25508C6.0677 8.30764 6.11593 8.34465 6.16849 8.33773C6.22106 8.33081 6.25806 8.28258 6.25114 8.23002C6.24422 8.17745 6.196 8.14045 6.14343 8.14737Z" fill="#000088"/>
<path d="M7.52394 6.19691L7.752 7.29531L7.95185 7.79391L7.87564 7.26218L7.52394 6.19691Z" fill="#000088"/>
<path d="M6.17012 7.65942C6.11755 7.6525 6.06933 7.6895 6.06241 7.74207C6.05549 7.79463 6.09249 7.84285 6.14506 7.84977C6.19762 7.85669 6.24584 7.81969 6.25276 7.76713C6.25969 7.71456 6.22268 7.66634 6.17012 7.65942Z" fill="#000088"/>
<path d="M8.00827 6.13182L7.94427 7.25182L8.00827 7.78516L8.07227 7.25182L8.00827 6.13182Z" fill="#000088"/>
<path d="M6.32267 7.19506C6.27369 7.17477 6.21753 7.19803 6.19724 7.24701C6.17695 7.296 6.20021 7.35215 6.2492 7.37244C6.29818 7.39273 6.35434 7.36947 6.37463 7.32049C6.39492 7.2715 6.37166 7.21535 6.32267 7.19506Z" fill="#000088"/>
<path d="M8.49305 6.19601L8.14135 7.26128L8.06513 7.79301L8.26499 7.29441L8.49305 6.19601Z" fill="#000088"/>
<path d="M6.58106 6.78631C6.539 6.75403 6.47874 6.76196 6.44646 6.80403C6.41419 6.84609 6.42212 6.90635 6.46418 6.93863C6.50625 6.97091 6.56651 6.96297 6.59879 6.92091C6.63106 6.87885 6.62313 6.81858 6.58106 6.78631Z" fill="#000088"/>
<path d="M8.93658 6.38285L8.32116 7.3208L8.10992 7.81468L8.43201 7.3848L8.93658 6.38285Z" fill="#000088"/>
<path d="M6.94612 6.4593C6.91384 6.41724 6.85358 6.4093 6.81151 6.44158C6.76945 6.47386 6.76152 6.53412 6.79379 6.57618C6.82607 6.61824 6.88633 6.62618 6.9284 6.5939C6.97046 6.56163 6.97839 6.50136 6.94612 6.4593Z" fill="#000088"/>
<path d="M9.32567 6.67922L8.48846 7.42592L8.15659 7.8483L8.57897 7.51643L9.32567 6.67922Z" fill="#000088"/>
<path d="M7.37606 6.23822C7.35577 6.18924 7.29961 6.16598 7.25063 6.18627C7.20165 6.20656 7.17839 6.26271 7.19868 6.3117C7.21896 6.36068 7.27512 6.38394 7.3241 6.36365C7.37309 6.34336 7.39635 6.28721 7.37606 6.23822Z" fill="#000088"/>
<path d="M9.61766 7.06713L8.61571 7.5717L8.18583 7.89379L8.67971 7.68255L9.61766 7.06713Z" fill="#000088"/>
<path d="M7.8566 6.1366C7.84968 6.08403 7.80146 6.04703 7.74889 6.05395C7.69632 6.06087 7.65932 6.10909 7.66624 6.16166C7.67316 6.21422 7.72138 6.25123 7.77395 6.24431C7.82652 6.23739 7.86352 6.18916 7.8566 6.1366Z" fill="#000088"/>
<path d="M9.80736 7.51613L8.70896 7.74418L8.21036 7.94404L8.74209 7.86782L9.80736 7.51613Z" fill="#000088"/>
<path d="M8.3426 6.16133C8.34952 6.10876 8.31251 6.06054 8.25995 6.05362C8.20738 6.0467 8.15916 6.0837 8.15224 6.13627C8.14532 6.18883 8.18232 6.23706 8.23489 6.24398C8.28745 6.2509 8.33568 6.21389 8.3426 6.16133Z" fill="#000088"/>
<path d="M9.86988 7.99948L8.74989 7.93548L8.21655 7.99948L8.74989 8.06348L9.86988 7.99948Z" fill="#000088"/>
<path d="M8.80561 6.31095C8.8259 6.26197 8.80264 6.20581 8.75366 6.18552C8.70468 6.16524 8.64852 6.1885 8.62823 6.23748C8.60794 6.28646 8.6312 6.34262 8.68018 6.36291C8.72917 6.3832 8.78532 6.35994 8.80561 6.31095Z" fill="#000088"/>
<path d="M9.80533 8.48231L8.74006 8.13061L8.20834 8.05439L8.70693 8.25425L9.80533 8.48231Z" fill="#000088"/>
<path d="M9.21583 6.57783C9.24811 6.53577 9.24017 6.4755 9.19811 6.44323C9.15605 6.41095 9.09578 6.41888 9.06351 6.46095C9.03123 6.50301 9.03916 6.56327 9.08123 6.59555C9.12329 6.62783 9.18355 6.61989 9.21583 6.57783Z" fill="#000088"/>
<path d="M9.61928 8.93335L8.68134 8.31792L8.18746 8.10668L8.61734 8.42878L9.61928 8.93335Z" fill="#000088"/>
<path d="M9.53856 6.94056C9.58063 6.90829 9.58856 6.84802 9.55628 6.80596C9.52401 6.7639 9.46374 6.75596 9.42168 6.78824C9.37962 6.82051 9.37168 6.88078 9.40396 6.92284C9.43624 6.9649 9.4965 6.97284 9.53856 6.94056Z" fill="#000088"/>
<path d="M9.31828 9.32012L8.57158 8.4829L8.1492 8.15103L8.48107 8.57341L9.31828 9.32012Z" fill="#000088"/>
<path d="M9.76672 7.37502C9.8157 7.35473 9.83897 7.29858 9.81868 7.24959C9.79839 7.20061 9.74223 7.17735 9.69325 7.19764C9.64426 7.21793 9.621 7.27408 9.64129 7.32307C9.66158 7.37205 9.71774 7.39531 9.76672 7.37502Z" fill="#000088"/>
<path d="M8.93843 9.61662L8.43385 8.61468L8.11176 8.1848L8.323 8.67868L8.93843 9.61662Z" fill="#000088"/>
<path d="M9.86603 7.85263C9.91859 7.84571 9.9556 7.79749 9.94868 7.74492C9.94176 7.69236 9.89353 7.65535 9.84097 7.66227C9.7884 7.66919 9.7514 7.71742 9.75832 7.76998C9.76524 7.82255 9.81346 7.85955 9.86603 7.85263Z" fill="#000088"/>
<path d="M8.48552 9.80309L8.25746 8.70469L8.05761 8.20609L8.13383 8.73782L8.48552 9.80309Z" fill="#000088"/>
</g>
<defs>
<clipPath id="clip0_11367_5015">
<rect width="16" height="16" fill="white"/>
</clipPath>
</defs>
</svg>
