<svg width="102" height="14" viewBox="0 0 102 14" fill="none" xmlns="http://www.w3.org/2000/svg">
<path d="M1.15314 11V3.72727H3.61053C4.18108 3.72727 4.64746 3.83026 5.00968 4.03622C5.37426 4.23982 5.64415 4.51562 5.81934 4.86364C5.99453 5.21165 6.08212 5.59991 6.08212 6.02841C6.08212 6.45691 5.99453 6.84635 5.81934 7.19673C5.64651 7.54711 5.379 7.82647 5.01678 8.0348C4.65456 8.24077 4.19055 8.34375 3.62473 8.34375H1.86337V7.5625H3.59632C3.98695 7.5625 4.30063 7.49503 4.53738 7.36009C4.77412 7.22514 4.94576 7.04285 5.05229 6.81321C5.16119 6.5812 5.21564 6.3196 5.21564 6.02841C5.21564 5.73722 5.16119 5.4768 5.05229 5.24716C4.94576 5.01752 4.77293 4.83759 4.53382 4.70739C4.29471 4.57481 3.97748 4.50852 3.58212 4.50852H2.03382V11H1.15314ZM9.54448 11.1136C9.05205 11.1136 8.62 10.9964 8.24831 10.7621C7.879 10.5277 7.59017 10.1998 7.38184 9.77841C7.17587 9.35701 7.07289 8.86458 7.07289 8.30114C7.07289 7.73295 7.17587 7.23698 7.38184 6.81321C7.59017 6.38944 7.879 6.06037 8.24831 5.82599C8.62 5.59162 9.05205 5.47443 9.54448 5.47443C10.0369 5.47443 10.4678 5.59162 10.8371 5.82599C11.2088 6.06037 11.4976 6.38944 11.7036 6.81321C11.9119 7.23698 12.0161 7.73295 12.0161 8.30114C12.0161 8.86458 11.9119 9.35701 11.7036 9.77841C11.4976 10.1998 11.2088 10.5277 10.8371 10.7621C10.4678 10.9964 10.0369 11.1136 9.54448 11.1136ZM9.54448 10.3608C9.91853 10.3608 10.2263 10.2649 10.4678 10.0732C10.7093 9.88139 10.888 9.62926 11.004 9.31676C11.12 9.00426 11.178 8.66572 11.178 8.30114C11.178 7.93655 11.12 7.59683 11.004 7.28196C10.888 6.96709 10.7093 6.71259 10.4678 6.51847C10.2263 6.32434 9.91853 6.22727 9.54448 6.22727C9.17042 6.22727 8.86266 6.32434 8.62118 6.51847C8.37971 6.71259 8.20096 6.96709 8.08496 7.28196C7.96896 7.59683 7.91096 7.93655 7.91096 8.30114C7.91096 8.66572 7.96896 9.00426 8.08496 9.31676C8.20096 9.62926 8.37971 9.88139 8.62118 10.0732C8.86266 10.2649 9.17042 10.3608 9.54448 10.3608ZM14.3456 11L12.6837 5.54545H13.5644L14.7433 9.72159H14.8002L15.9649 5.54545H16.8598L18.0104 9.70739H18.0672L19.2462 5.54545H20.1269L18.4649 11H17.6411L16.4479 6.80966H16.3627L15.1695 11H14.3456ZM23.3362 11.1136C22.8106 11.1136 22.3573 10.9976 21.9761 10.7656C21.5973 10.5312 21.305 10.2045 21.099 9.78551C20.8954 9.36411 20.7936 8.87405 20.7936 8.31534C20.7936 7.75663 20.8954 7.2642 21.099 6.83807C21.305 6.40956 21.5914 6.07576 21.9584 5.83665C22.3277 5.59517 22.7586 5.47443 23.251 5.47443C23.5351 5.47443 23.8156 5.52178 24.0926 5.61648C24.3696 5.71117 24.6217 5.86506 24.849 6.07812C25.0763 6.28883 25.2574 6.56818 25.3923 6.91619C25.5273 7.2642 25.5947 7.69271 25.5947 8.2017V8.55682H21.3902V7.83239H24.7425C24.7425 7.52462 24.6809 7.25 24.5578 7.00852C24.4371 6.76705 24.2642 6.57647 24.0393 6.43679C23.8168 6.29711 23.554 6.22727 23.251 6.22727C22.9172 6.22727 22.6283 6.31013 22.3845 6.47585C22.143 6.6392 21.9572 6.85227 21.827 7.11506C21.6968 7.37784 21.6317 7.65956 21.6317 7.96023V8.44318C21.6317 8.85511 21.7027 9.20431 21.8447 9.49077C21.9891 9.77486 22.1892 9.99148 22.4449 10.1406C22.7006 10.2874 22.9977 10.3608 23.3362 10.3608C23.5564 10.3608 23.7552 10.33 23.9328 10.2685C24.1127 10.2045 24.2678 10.1098 24.398 9.98438C24.5282 9.85653 24.6288 9.69792 24.6998 9.50852L25.5095 9.7358C25.4243 10.0104 25.281 10.2519 25.0798 10.4602C24.8786 10.6662 24.63 10.8272 24.3341 10.9432C24.0381 11.0568 23.7055 11.1136 23.3362 11.1136ZM26.8696 11V5.54545H27.6792V6.36932H27.7361C27.8355 6.09943 28.0154 5.88045 28.2758 5.71236C28.5363 5.54427 28.8298 5.46023 29.1565 5.46023C29.2181 5.46023 29.295 5.46141 29.3873 5.46378C29.4797 5.46615 29.5495 5.4697 29.5969 5.47443V6.3267C29.5684 6.3196 29.5033 6.30895 29.4015 6.29474C29.3021 6.27817 29.1968 6.26989 29.0855 6.26989C28.8203 6.26989 28.5836 6.32552 28.3753 6.43679C28.1693 6.54569 28.0059 6.69721 27.8852 6.89134C27.7668 7.0831 27.7077 7.30208 27.7077 7.5483V11H26.8696ZM32.7112 11.1136C32.1856 11.1136 31.7323 10.9976 31.3511 10.7656C30.9723 10.5312 30.68 10.2045 30.474 9.78551C30.2704 9.36411 30.1686 8.87405 30.1686 8.31534C30.1686 7.75663 30.2704 7.2642 30.474 6.83807C30.68 6.40956 30.9664 6.07576 31.3334 5.83665C31.7027 5.59517 32.1336 5.47443 32.626 5.47443C32.9101 5.47443 33.1906 5.52178 33.4676 5.61648C33.7446 5.71117 33.9967 5.86506 34.224 6.07812C34.4513 6.28883 34.6324 6.56818 34.7673 6.91619C34.9023 7.2642 34.9697 7.69271 34.9697 8.2017V8.55682H30.7652V7.83239H34.1175C34.1175 7.52462 34.0559 7.25 33.9328 7.00852C33.8121 6.76705 33.6392 6.57647 33.4143 6.43679C33.1918 6.29711 32.929 6.22727 32.626 6.22727C32.2922 6.22727 32.0033 6.31013 31.7595 6.47585C31.518 6.6392 31.3322 6.85227 31.202 7.11506C31.0718 7.37784 31.0067 7.65956 31.0067 7.96023V8.44318C31.0067 8.85511 31.0777 9.20431 31.2197 9.49077C31.3641 9.77486 31.5642 9.99148 31.8199 10.1406C32.0756 10.2874 32.3727 10.3608 32.7112 10.3608C32.9314 10.3608 33.1302 10.33 33.3078 10.2685C33.4877 10.2045 33.6428 10.1098 33.773 9.98438C33.9032 9.85653 34.0038 9.69792 34.0748 9.50852L34.8845 9.7358C34.7993 10.0104 34.656 10.2519 34.4548 10.4602C34.2536 10.6662 34.005 10.8272 33.7091 10.9432C33.4131 11.0568 33.0805 11.1136 32.7112 11.1136ZM38.3042 11.1136C37.8497 11.1136 37.4484 10.9988 37.1004 10.7692C36.7524 10.5372 36.4801 10.2105 36.2836 9.78906C36.0872 9.36529 35.9889 8.86458 35.9889 8.28693C35.9889 7.71402 36.0872 7.21686 36.2836 6.79545C36.4801 6.37405 36.7536 6.04853 37.104 5.81889C37.4543 5.58925 37.8592 5.47443 38.3184 5.47443C38.6736 5.47443 38.9541 5.53362 39.1601 5.65199C39.3684 5.76799 39.527 5.90057 39.6359 6.04972C39.7472 6.1965 39.8336 6.31723 39.8952 6.41193H39.9662V3.72727H40.8042V11H39.9946V10.1619H39.8952C39.8336 10.2614 39.746 10.3868 39.6324 10.5384C39.5187 10.6875 39.3566 10.8213 39.1459 10.9396C38.9352 11.0556 38.6546 11.1136 38.3042 11.1136ZM38.4179 10.3608C38.7541 10.3608 39.0381 10.2732 39.2702 10.098C39.5022 9.92045 39.6785 9.67543 39.7993 9.36293C39.92 9.04806 39.9804 8.68466 39.9804 8.27273C39.9804 7.86553 39.9212 7.50923 39.8028 7.20384C39.6845 6.89607 39.5093 6.65696 39.2773 6.48651C39.0452 6.31368 38.7588 6.22727 38.4179 6.22727C38.0628 6.22727 37.7668 6.31842 37.5301 6.50071C37.2957 6.68063 37.1193 6.92566 37.001 7.2358C36.885 7.54356 36.827 7.8892 36.827 8.27273C36.827 8.66098 36.8862 9.01373 37.0045 9.33097C37.1253 9.64583 37.3028 9.89678 37.5372 10.0838C37.7739 10.2685 38.0675 10.3608 38.4179 10.3608ZM45.3817 11V3.72727H46.2197V6.41193H46.2907C46.3523 6.31723 46.4375 6.1965 46.5464 6.04972C46.6577 5.90057 46.8163 5.76799 47.0223 5.65199C47.2306 5.53362 47.5123 5.47443 47.8675 5.47443C48.3267 5.47443 48.7316 5.58925 49.0819 5.81889C49.4323 6.04853 49.7058 6.37405 49.9023 6.79545C50.0988 7.21686 50.197 7.71402 50.197 8.28693C50.197 8.86458 50.0988 9.36529 49.9023 9.78906C49.7058 10.2105 49.4335 10.5372 49.0855 10.7692C48.7375 10.9988 48.3362 11.1136 47.8817 11.1136C47.5313 11.1136 47.2507 11.0556 47.04 10.9396C46.8293 10.8213 46.6672 10.6875 46.5535 10.5384C46.4399 10.3868 46.3523 10.2614 46.2907 10.1619H46.1913V11H45.3817ZM46.2055 8.27273C46.2055 8.68466 46.2659 9.04806 46.3866 9.36293C46.5074 9.67543 46.6837 9.92045 46.9157 10.098C47.1478 10.2732 47.4318 10.3608 47.768 10.3608C48.1184 10.3608 48.4108 10.2685 48.6452 10.0838C48.8819 9.89678 49.0595 9.64583 49.1778 9.33097C49.2986 9.01373 49.3589 8.66098 49.3589 8.27273C49.3589 7.8892 49.2997 7.54356 49.1814 7.2358C49.0654 6.92566 48.889 6.68063 48.6523 6.50071C48.4179 6.31842 48.1231 6.22727 47.768 6.22727C47.4271 6.22727 47.1407 6.31368 46.9086 6.48651C46.6766 6.65696 46.5015 6.89607 46.3831 7.20384C46.2647 7.50923 46.2055 7.86553 46.2055 8.27273ZM51.8234 13.0455C51.6814 13.0455 51.5547 13.0336 51.4434 13.0099C51.3322 12.9886 51.2552 12.9673 51.2126 12.946L51.4257 12.2074C51.6293 12.2595 51.8092 12.2784 51.9655 12.2642C52.1217 12.25 52.2602 12.1802 52.3809 12.0547C52.5041 11.9316 52.6165 11.7315 52.7183 11.4545L52.8746 11.0284L50.8575 5.54545H51.7666L53.2723 9.89205H53.3291L54.8348 5.54545H55.7439L53.4285 11.7955C53.3244 12.0772 53.1953 12.3104 53.0415 12.495C52.8876 12.6821 52.7088 12.8205 52.5052 12.9105C52.304 13.0005 52.0767 13.0455 51.8234 13.0455Z" fill="black"/>
<path d="M70.7827 8.50602C70.6857 8.32793 70.5642 8.16527 70.4227 8.02228L69.6577 7.25726L68.9221 7.99288L69.678 8.74883C69.8796 8.95018 70.0042 9.22853 70.0042 9.53608C70.0042 9.84361 69.8885 10.1017 69.6996 10.3013L69.699 10.302C69.692 10.3092 69.685 10.3164 69.678 10.3235C69.19 10.8235 68.5917 11.2157 67.9225 11.4606C67.4172 11.6455 66.8712 11.7464 66.3021 11.7464C65.8196 11.7464 65.3543 11.674 64.916 11.5393C64.5569 11.4293 64.2163 11.2773 63.8995 11.0894C62.5143 10.2677 61.5856 8.75728 61.5856 7.02988C61.5856 5.30246 62.5143 3.79185 63.8995 2.97012C64.2174 2.78167 64.5594 2.62937 64.9198 2.51917C65.357 2.38507 65.8213 2.31315 66.3023 2.31315C66.87 2.31315 67.4142 2.4134 67.9182 2.59722C68.5889 2.84194 69.1886 3.23428 69.6774 3.73537C69.6839 3.74191 69.6903 3.74848 69.6966 3.75503C69.8872 3.95491 70.0042 4.22543 70.0042 4.52347C70.0042 4.82147 69.8796 5.10912 69.678 5.31069L69.5069 5.48202L68.6947 6.29401L66.9239 4.52325C66.8658 4.4657 66.8044 4.41157 66.7401 4.36081C66.374 4.07314 65.912 3.9014 65.4101 3.9014C65.232 3.9014 65.059 3.92297 64.8934 3.96399C64.7756 3.99277 64.6616 4.03147 64.5524 4.07906C64.544 4.08266 64.5355 4.08647 64.5273 4.09027C63.7779 4.42722 63.2561 5.18041 63.2561 6.05543C63.2561 6.10894 63.258 6.16204 63.262 6.2147C63.262 6.21683 63.2622 6.21893 63.2624 6.22127C63.2633 6.23417 63.2646 6.24707 63.2658 6.25997C63.2929 6.49051 63.434 6.68638 63.6311 6.78939C63.7263 6.83908 63.8346 6.86723 63.9494 6.86723H63.9505C64.1533 6.86701 64.3359 6.77881 64.4615 6.63879C64.5711 6.51716 64.6377 6.356 64.6377 6.17917C64.6377 6.11761 64.6296 6.05818 64.6146 6.00151C64.5759 5.85661 64.4911 5.73034 64.3769 5.63982C64.5417 5.23076 64.942 4.94205 65.4101 4.94205C65.7177 4.94205 65.996 5.06663 66.1976 5.2682L67.9591 7.02967L67.5016 7.48717L66.1881 8.80065C65.9873 8.99674 65.7128 9.1175 65.4101 9.1175C65.2494 9.1175 65.0964 9.08344 64.9583 9.0221C64.9575 9.02169 64.9564 9.02126 64.9554 9.02085C64.6931 8.90325 64.4845 8.68727 64.3769 8.41992C64.4911 8.32918 64.5759 8.20313 64.6146 8.05804C64.6296 8.00156 64.6377 7.94191 64.6377 7.88057C64.6377 7.70374 64.5711 7.54258 64.4615 7.42076C64.3359 7.28093 64.1537 7.19273 63.9509 7.19232H63.9494C63.8346 7.19232 63.7263 7.22044 63.6311 7.27016C63.4333 7.37357 63.292 7.57029 63.2656 7.80167C63.2654 7.80465 63.265 7.8074 63.2647 7.81013C63.2639 7.81946 63.2631 7.82854 63.2624 7.83784C63.2624 7.84037 63.2624 7.84272 63.262 7.84504C63.258 7.89751 63.2561 7.95058 63.2561 8.00387C63.2561 8.87892 63.7779 9.63233 64.5273 9.96926L64.5524 9.98046C64.6616 10.0281 64.7756 10.0668 64.8934 10.0955C65.059 10.1366 65.232 10.1581 65.4101 10.1581C65.9133 10.1581 66.3761 9.98576 66.7426 9.69661C66.7776 9.66912 66.8116 9.64035 66.8448 9.61054L66.8457 9.60969L68.4457 8.0096L68.6924 7.76297L69.428 7.02735L69.6459 6.80968L69.8368 6.61869L70.4113 6.04403C70.5571 5.89828 70.6821 5.73162 70.7815 5.54908C70.9477 5.24344 71.0423 4.89317 71.0423 4.52093C71.0423 4.34409 71.0209 4.17236 70.9807 4.00801C70.89 3.63637 70.703 3.3026 70.4475 3.03484C70.4397 3.02657 70.4319 3.01856 70.4236 3.01051C70.4225 3.00945 70.4217 3.0086 70.4208 3.00754C70.4143 3.00121 70.4079 2.99464 70.4016 2.98831C70.4001 2.98662 70.3986 2.98534 70.3972 2.98406C69.3535 1.92757 67.9045 1.27272 66.3023 1.27272C65.5248 1.27272 64.7834 1.4267 64.1068 1.70611C63.7686 1.84572 63.4467 2.01661 63.1444 2.21502C61.5786 3.24424 60.5449 5.01628 60.5449 7.02988C60.5449 9.04346 61.5786 10.8155 63.1444 11.8445C63.4456 12.0423 63.7665 12.2128 64.1034 12.3519C64.7809 12.6324 65.5235 12.787 66.3023 12.787C67.9129 12.787 69.3692 12.1254 70.4139 11.0592L70.4187 11.0543C70.4221 11.0509 70.4255 11.0473 70.4289 11.044C70.4354 11.0374 70.442 11.0306 70.4483 11.0239C70.4509 11.0215 70.4532 11.019 70.4555 11.0162C70.7072 10.7504 70.8919 10.4202 70.9822 10.0528C71.0232 9.88719 71.0448 9.71417 71.0448 9.53608C71.0448 9.16297 70.9496 8.81207 70.7827 8.50602Z" fill="#1A1A1A"/>
<path d="M77.4468 4.4578C77.3568 4.32899 77.2412 4.21302 77.1127 4.10999C76.9842 4.00692 76.8556 3.92963 76.7143 3.86522C76.5729 3.8008 76.4316 3.74928 76.2774 3.71063C76.1232 3.67199 75.969 3.65909 75.8148 3.65909C75.6348 3.65909 75.4421 3.68486 75.2493 3.73638C75.0823 3.78792 74.9152 3.85232 74.761 3.94251C74.4654 4.12286 74.2084 4.38051 74.0413 4.6768C73.9514 4.83138 73.8871 4.99886 73.8357 5.16634C73.7844 5.3467 73.7715 5.52705 73.7715 5.70741C73.7715 5.88773 73.7972 6.06809 73.8486 6.24844C73.9 6.41592 73.9642 6.58341 74.0671 6.73799C74.247 7.03428 74.504 7.29192 74.8124 7.47228C74.9666 7.56247 75.1337 7.63976 75.3007 7.67841C75.4678 7.72992 75.6477 7.7557 75.8276 7.7557H75.8404C75.9561 7.7557 76.0846 7.74282 76.2003 7.71705C76.3159 7.69128 76.4316 7.66551 76.5344 7.62686C76.6372 7.58822 76.74 7.5367 76.8428 7.47228C76.9328 7.42076 77.0356 7.35634 77.1127 7.29192C77.1512 7.25328 77.1898 7.21463 77.2283 7.17599C77.2669 7.12444 77.2797 7.07292 77.2926 7.00851C77.2926 6.96986 77.2797 6.94412 77.2669 6.90544C77.254 6.8797 77.2412 6.85392 77.2283 6.84105L77.1769 6.77663C77.1641 6.76376 77.1512 6.73799 77.1384 6.71222C77.1127 6.67357 77.087 6.63492 77.0484 6.59628C77.0227 6.55763 76.997 6.53186 76.9585 6.50609C76.9199 6.48034 76.8814 6.46744 76.8428 6.46744H76.83H76.8171C76.7657 6.46744 76.7143 6.48034 76.6758 6.51899C76.65 6.53186 76.6243 6.55763 76.6115 6.57051C76.5601 6.60915 76.5087 6.6607 76.4444 6.69934C76.393 6.73799 76.3288 6.77663 76.2774 6.80241C76.2131 6.82815 76.1489 6.85392 76.0718 6.8668C75.9947 6.8797 75.9175 6.89257 75.8276 6.89257H75.8148C75.6862 6.89257 75.5577 6.8668 75.4421 6.81528C75.3136 6.76376 75.2108 6.69934 75.108 6.60915C75.0052 6.51899 74.9152 6.41592 74.8381 6.29999C74.7996 6.23557 74.761 6.17115 74.7353 6.10673H77.5624C77.7295 6.10673 77.8452 5.9908 77.8452 5.82334C77.858 5.5657 77.8195 5.29515 77.7552 5.05038C77.7038 4.84428 77.5881 4.63815 77.4468 4.4578ZM76.9456 5.26938H74.7353C74.7738 5.17922 74.8124 5.10192 74.8767 5.01173C74.9666 4.88292 75.0823 4.76699 75.2108 4.6768C75.3007 4.61238 75.4164 4.57373 75.5192 4.54799C75.622 4.52222 75.7377 4.50934 75.8533 4.50934C75.9947 4.50934 76.1232 4.53509 76.2517 4.57373C76.3802 4.61238 76.4958 4.6768 76.5987 4.76699C76.7014 4.84428 76.7914 4.94734 76.8556 5.06328C76.8942 5.1277 76.9199 5.19209 76.9456 5.26938Z" fill="#1A1A1A"/>
<path d="M81.2373 7.26612L79.7466 5.48834L81.0574 4.12282C81.0959 4.07128 81.1216 3.99399 81.1216 3.94247C81.1216 3.90382 81.1216 3.87805 81.1088 3.85228C81.0959 3.82653 81.0702 3.80076 81.0445 3.76212C80.9931 3.72347 80.9417 3.7106 80.8903 3.7106H80.4663C80.402 3.7106 80.3506 3.72347 80.2992 3.74924C80.2606 3.77499 80.2349 3.80076 80.1964 3.82653L78.9627 5.14053V2.89899C78.9627 2.86034 78.9627 2.8217 78.937 2.78305C78.9242 2.74441 78.8985 2.70576 78.8728 2.69289C78.8214 2.64134 78.7571 2.61557 78.68 2.61557H78.3844C78.3459 2.61557 78.3073 2.61557 78.2688 2.62847C78.2302 2.64134 78.1917 2.66712 78.166 2.69289C78.1146 2.74441 78.0889 2.80882 78.0889 2.88612V7.38208C78.0889 7.42072 78.0889 7.45937 78.1017 7.48512C78.1146 7.52376 78.1403 7.56243 78.166 7.58818C78.1917 7.61395 78.2302 7.63972 78.2688 7.6526C78.2945 7.66547 78.3202 7.66547 78.3587 7.66547C78.3716 7.66547 78.3716 7.66547 78.3844 7.66547H78.6543C78.8214 7.66547 78.937 7.54953 78.937 7.38208V6.31282L79.1555 6.09382L80.3249 7.51089C80.3506 7.54953 80.3763 7.60108 80.4277 7.62682C80.4791 7.6526 80.5305 7.67837 80.5819 7.67837H81.0702C81.1216 7.67837 81.1602 7.67837 81.1987 7.6526L81.2116 7.63972C81.2373 7.62682 81.3144 7.57531 81.3144 7.45937C81.3144 7.4336 81.3144 7.40782 81.3015 7.38208C81.3015 7.34341 81.2758 7.30476 81.2373 7.26612Z" fill="#1A1A1A"/>
<path d="M84.7983 3.71018H84.5156C84.477 3.71018 84.4385 3.71019 84.4128 3.72306C84.3742 3.73593 84.3357 3.7617 84.31 3.78748C84.2843 3.81322 84.2586 3.85189 84.2457 3.89054C84.2329 3.92919 84.2329 3.96783 84.2329 3.99358V4.00648C84.1172 3.92919 84.0015 3.85189 83.873 3.80035C83.6289 3.69729 83.3719 3.64577 83.1149 3.64577C83.102 3.64577 83.102 3.64577 83.0892 3.64577C82.9092 3.64577 82.7293 3.67154 82.5494 3.72306C82.3824 3.77458 82.2153 3.83899 82.0611 3.92919C81.9069 4.01935 81.7655 4.12241 81.6499 4.25125C81.5214 4.38006 81.4186 4.50889 81.3286 4.66348C81.2387 4.81806 81.1616 4.98554 81.123 5.15299C81.0202 5.5137 81.0202 5.88731 81.123 6.23512C81.1744 6.4026 81.2387 6.57006 81.3286 6.72467C81.5085 7.02096 81.7655 7.2786 82.0611 7.45896C82.2153 7.54912 82.3824 7.62641 82.5494 7.66506C82.7293 7.7166 82.9092 7.74238 83.0892 7.74238C83.102 7.74238 83.102 7.74238 83.1149 7.74238C83.3719 7.74238 83.6289 7.69083 83.873 7.58777C84.0015 7.53625 84.1172 7.45896 84.2329 7.38167V7.40741C84.2329 7.44606 84.2329 7.4847 84.2586 7.52338C84.2714 7.56202 84.2971 7.58777 84.3228 7.61354C84.3485 7.63931 84.3871 7.66506 84.4256 7.67796C84.4642 7.69083 84.5027 7.7037 84.5284 7.69083H84.824C84.9011 7.69083 84.9654 7.66506 85.0167 7.61354C85.0425 7.58777 85.0682 7.54912 85.081 7.51048C85.0939 7.47183 85.1067 7.43319 85.0939 7.40741V3.99358C85.0939 3.89054 85.0553 3.82612 85.0167 3.78748C84.9782 3.74883 84.914 3.71018 84.7983 3.71018ZM84.2457 5.68119C84.2457 5.83577 84.22 5.99035 84.1558 6.14496C84.0915 6.28667 84.0144 6.41548 83.8988 6.53141C83.7959 6.64735 83.6674 6.73754 83.5261 6.80196C83.3847 6.86635 83.2305 6.90502 83.0763 6.90502C82.9221 6.90502 82.7679 6.86635 82.6394 6.80196C82.498 6.73754 82.3824 6.64735 82.2667 6.53141C82.1639 6.41548 82.074 6.28667 82.0226 6.14496C81.9069 5.84864 81.9069 5.5266 82.0226 5.23028C82.0868 5.0886 82.1639 4.95977 82.2667 4.84383C82.3695 4.72789 82.498 4.65058 82.6394 4.58618C82.7807 4.52177 82.9349 4.48312 83.0763 4.48312C83.2305 4.48312 83.3847 4.52177 83.5261 4.58618C83.6674 4.65058 83.7959 4.74077 83.8988 4.84383C84.0015 4.95977 84.0915 5.0886 84.1558 5.23028C84.22 5.37199 84.2457 5.5266 84.2457 5.68119Z" fill="#1A1A1A"/>
<path d="M90.2461 6.89274C90.2332 6.87987 90.2204 6.8541 90.2076 6.84122L90.0791 6.67374C90.0661 6.64797 90.0404 6.62222 90.0276 6.59645C90.002 6.54491 89.9504 6.51916 89.8863 6.49339C89.8348 6.48051 89.7835 6.48051 89.732 6.49339C89.6935 6.50626 89.6679 6.51916 89.6291 6.54491L89.5907 6.58358C89.5394 6.62222 89.4879 6.67374 89.4235 6.71239C89.3722 6.75103 89.3079 6.78968 89.2566 6.81545C89.1922 6.84122 89.1281 6.86697 89.051 6.87987C88.9738 6.89274 88.8969 6.90561 88.8069 6.90561H88.7941C88.6525 6.90561 88.4984 6.86697 88.37 6.81545C88.2284 6.75103 88.1 6.66087 87.9971 6.55781C87.8815 6.44187 87.8043 6.31303 87.7402 6.17132C87.6759 6.02961 87.6502 5.87503 87.6502 5.70755C87.6502 5.55297 87.6887 5.38552 87.7531 5.24381C87.8174 5.1021 87.9071 4.96039 88.01 4.85732C88.1128 4.74139 88.2415 4.6512 88.3828 4.58681C88.5112 4.52239 88.6653 4.48374 88.8069 4.48374C88.8838 4.48374 88.9481 4.49661 89.0253 4.50949C89.1666 4.53526 89.3079 4.59968 89.4235 4.67697C89.4751 4.71561 89.5263 4.75426 89.5779 4.80581C89.6422 4.8702 89.7191 4.90884 89.7963 4.90884C89.8476 4.90884 89.9248 4.8831 89.9891 4.79291L90.2076 4.50949C90.2461 4.45797 90.2461 4.39355 90.2461 4.34203C90.2461 4.30339 90.2204 4.25184 90.1948 4.2132C90.1689 4.18745 90.1432 4.16168 90.1176 4.13591L90.0661 4.09726C89.9891 4.03284 89.8991 3.98132 89.8091 3.92981C89.7063 3.87826 89.6163 3.82674 89.5135 3.7881C89.4107 3.74945 89.2951 3.72368 89.1794 3.69791C89.0638 3.67213 88.9481 3.65926 88.8325 3.67213C88.6525 3.67213 88.4728 3.69791 88.2928 3.74945C88.1256 3.80097 87.9587 3.86539 87.8043 3.95555C87.4961 4.13591 87.2518 4.39355 87.0592 4.68984C86.9692 4.84445 86.8921 5.01191 86.8408 5.17939C86.738 5.5401 86.738 5.91368 86.8408 6.26151C86.8921 6.42897 86.9564 6.59645 87.0592 6.75103C87.239 7.04732 87.4961 7.30497 87.8043 7.48532C87.9587 7.57551 88.1256 7.65281 88.2928 7.69145C88.4728 7.74297 88.6397 7.76874 88.8197 7.76874H88.8325C88.9481 7.76874 89.0766 7.75587 89.1922 7.7301C89.3079 7.70432 89.4235 7.67858 89.5263 7.63993C89.6291 7.60129 89.732 7.54974 89.8348 7.48532C89.9248 7.43381 90.0148 7.36939 90.1048 7.30497C90.1432 7.27922 90.182 7.24058 90.2076 7.20193C90.2332 7.16326 90.2589 7.12461 90.2717 7.08597C90.2845 7.03445 90.2845 6.98291 90.2717 6.94426L90.2461 6.89274Z" fill="#1A1A1A"/>
<path d="M94.1019 3.71018H93.8191C93.7806 3.71018 93.7419 3.71019 93.7162 3.72306C93.6778 3.73593 93.6393 3.7617 93.6134 3.78748C93.5878 3.81322 93.5621 3.85189 93.5493 3.89054C93.5365 3.92919 93.5365 3.96783 93.5365 3.99358V4.00648C93.4206 3.92919 93.305 3.85189 93.1765 3.80035C92.9324 3.69729 92.6755 3.64577 92.4055 3.64577C92.2255 3.64577 92.0458 3.67154 91.8658 3.72306C91.6989 3.77458 91.5317 3.83899 91.3776 3.92919C91.2232 4.01935 91.082 4.12241 90.9663 4.25125C90.8379 4.38006 90.7351 4.50889 90.6451 4.66348C90.5551 4.81806 90.4907 4.98554 90.4394 5.15299C90.3366 5.5137 90.3366 5.88731 90.4394 6.23512C90.5807 6.75041 90.9276 7.18841 91.3776 7.45896C91.5317 7.54912 91.6989 7.62641 91.8658 7.66506C92.0458 7.7166 92.2255 7.74238 92.4055 7.74238C92.4183 7.74238 92.4183 7.74238 92.4311 7.74238C92.6883 7.74238 92.9452 7.69083 93.1893 7.58777C93.3181 7.53625 93.4337 7.45896 93.5493 7.38167V7.40741C93.5493 7.44606 93.5493 7.4847 93.575 7.52338C93.5878 7.56202 93.6134 7.58777 93.6393 7.61354C93.665 7.63931 93.7034 7.66506 93.7419 7.67796C93.7806 7.69083 93.8191 7.7037 93.8447 7.69083H94.1403C94.2175 7.69083 94.2816 7.66506 94.3331 7.61354C94.3588 7.58777 94.3844 7.54912 94.3975 7.51048C94.4103 7.47183 94.4231 7.43319 94.4231 7.40741V3.99358C94.4231 3.89054 94.3844 3.82612 94.346 3.78748C94.2816 3.74883 94.2175 3.71018 94.1019 3.71018ZM93.5621 5.68119C93.5621 5.83577 93.5365 5.99035 93.4721 6.14496C93.4078 6.28667 93.3309 6.42835 93.2152 6.53141C93.1124 6.64735 92.9837 6.73754 92.8424 6.80196C92.7011 6.86635 92.5468 6.90502 92.3927 6.90502C92.2386 6.90502 92.0842 6.86635 91.9558 6.80196C91.8145 6.73754 91.6989 6.64735 91.583 6.53141C91.4801 6.41548 91.3904 6.28667 91.3389 6.14496C91.2232 5.84864 91.2232 5.5266 91.3389 5.23028C91.4032 5.0886 91.4801 4.95977 91.583 4.84383C91.6858 4.72789 91.8145 4.65058 91.9558 4.58618C92.0971 4.52177 92.2514 4.48312 92.3927 4.48312C92.5468 4.48312 92.7011 4.52177 92.8424 4.58618C92.9837 4.65058 93.1124 4.74077 93.2152 4.84383C93.3181 4.95977 93.4078 5.0886 93.4721 5.23028C93.5234 5.37199 93.5621 5.5266 93.5621 5.68119Z" fill="#1A1A1A"/>
<path d="M97.4552 4.25167C97.4552 4.21302 97.4424 4.17438 97.4296 4.13573C97.4168 4.09709 97.3909 4.07132 97.3652 4.04557C97.3396 4.0198 97.314 3.99402 97.2752 3.98115C97.1983 3.92963 97.1211 3.87809 97.0311 3.82657C96.954 3.78792 96.877 3.74928 96.787 3.72351C96.697 3.69773 96.607 3.68486 96.517 3.67199C96.4142 3.65909 96.3114 3.65909 96.2217 3.65909C96.1058 3.65909 96.003 3.67199 95.9004 3.71063C95.8104 3.74928 95.7332 3.78792 95.656 3.83944C95.6432 3.85232 95.6304 3.86522 95.6176 3.86522C95.6048 3.83944 95.592 3.81367 95.566 3.78792C95.5404 3.76215 95.502 3.73638 95.4632 3.72351C95.4248 3.71063 95.3863 3.69773 95.3607 3.71063H95.065C95.0263 3.71063 94.9879 3.71063 94.9622 3.73638C94.9235 3.74928 94.8979 3.77502 94.8722 3.78792C94.8466 3.81367 94.821 3.85232 94.8079 3.89099C94.795 3.92963 94.7822 3.96828 94.7822 3.99402V7.40786C94.7822 7.57534 94.8979 7.69128 95.065 7.69128H95.3607C95.3735 7.69128 95.3735 7.69128 95.3863 7.69128C95.412 7.69128 95.4504 7.69128 95.4763 7.67841C95.5148 7.66551 95.5532 7.63976 95.5791 7.61399C95.6048 7.58822 95.6304 7.54957 95.6432 7.51092C95.656 7.47228 95.656 7.43363 95.656 7.40786V5.15344C95.656 5.05038 95.6689 4.96022 95.7076 4.87002C95.7332 4.79273 95.7845 4.72834 95.836 4.66392C95.8873 4.61238 95.9517 4.57373 96.016 4.53509C96.0801 4.50934 96.1573 4.49644 96.2345 4.49644C96.3373 4.49644 96.4401 4.50934 96.5427 4.54799C96.6586 4.58663 96.7614 4.63815 96.8511 4.70257L96.8899 4.72834C96.9283 4.76699 96.9799 4.77986 97.044 4.77986C97.0824 4.77986 97.1211 4.76699 97.1468 4.74122C97.1852 4.71544 97.2111 4.68967 97.2368 4.66392L97.4168 4.38051C97.4424 4.34186 97.4552 4.30322 97.4552 4.25167Z" fill="#1A1A1A"/>
<path d="M101.362 5.06283C101.298 4.84383 101.208 4.62483 101.067 4.44448C100.964 4.31564 100.861 4.1997 100.733 4.09664C100.604 3.99358 100.476 3.91628 100.334 3.85189C100.193 3.78748 100.052 3.73593 99.8974 3.69729C99.7431 3.65864 99.589 3.64577 99.4349 3.64577H99.4218C99.2421 3.64577 99.0492 3.67154 98.8692 3.72306C98.7023 3.77458 98.5351 3.83899 98.3811 3.92919C98.2267 4.01935 98.0854 4.12241 97.9698 4.25125C97.7257 4.50889 97.5457 4.81806 97.4557 5.15299C97.4044 5.33335 97.3916 5.5137 97.3916 5.69406C97.3916 5.87441 97.4172 6.06764 97.4685 6.23512C97.5201 6.4026 97.5841 6.57006 97.6741 6.72467C97.7641 6.87925 97.8798 7.02096 97.9954 7.13689C98.1239 7.2657 98.2654 7.36877 98.4067 7.45896C98.5608 7.54912 98.728 7.62641 98.8951 7.66506C99.0749 7.7166 99.2421 7.74238 99.4218 7.74238C99.4218 7.74238 99.4218 7.74238 99.4349 7.74238C99.5633 7.74238 99.679 7.72948 99.7946 7.70373C99.9102 7.67796 100.026 7.65218 100.129 7.61354C100.232 7.57489 100.334 7.52338 100.437 7.45896C100.527 7.40741 100.617 7.34302 100.707 7.2786C100.746 7.23996 100.797 7.20131 100.823 7.16267C100.861 7.12402 100.874 7.07248 100.874 6.99518C100.874 6.95654 100.861 6.93077 100.848 6.89212C100.836 6.86635 100.823 6.8406 100.81 6.8277L100.771 6.77619C100.758 6.76331 100.746 6.73754 100.72 6.71177L100.63 6.59583C100.617 6.57006 100.591 6.54431 100.566 6.53141C100.54 6.50567 100.501 6.49277 100.463 6.47989C100.424 6.46699 100.386 6.46699 100.36 6.47989C100.322 6.49277 100.296 6.50567 100.27 6.51854C100.244 6.53141 100.219 6.55718 100.206 6.57006C100.154 6.6087 100.103 6.66025 100.039 6.69889C99.9874 6.73754 99.9231 6.77618 99.8718 6.80196C99.8074 6.8277 99.7431 6.85348 99.6661 6.86635C99.589 6.87925 99.499 6.89212 99.4218 6.89212H99.409C99.2805 6.89212 99.1521 6.86635 99.0364 6.81483C98.908 6.76331 98.8051 6.69889 98.7023 6.6087C98.5995 6.51854 98.5095 6.41548 98.4451 6.29954C98.4067 6.23512 98.3682 6.1707 98.3423 6.10631H101.17C101.337 6.10631 101.452 5.99035 101.452 5.82289C101.465 5.57812 101.427 5.32048 101.362 5.06283ZM100.553 5.26896H98.3423C98.3811 5.17877 98.4195 5.10148 98.4839 5.01128C98.5739 4.88248 98.6895 4.76654 98.818 4.67635C98.908 4.61193 99.0108 4.57329 99.1264 4.54754C99.2292 4.52177 99.3449 4.50889 99.4605 4.50889C99.6018 4.50889 99.7302 4.53464 99.8587 4.57329C99.9874 4.61193 100.103 4.67635 100.206 4.76654C100.309 4.84383 100.398 4.94689 100.463 5.06283C100.488 5.12725 100.527 5.19164 100.553 5.26896Z" fill="#1A1A1A"/>
<path d="M86.2369 6.72542C86.1469 6.68678 86.0441 6.6739 85.9413 6.69968C85.8386 6.72542 85.7486 6.7641 85.6715 6.84139C85.5944 6.91868 85.543 7.00884 85.5301 7.1119C85.5045 7.25361 85.5301 7.38245 85.6072 7.49839C85.6843 7.61432 85.8 7.69161 85.9285 7.71739C85.9672 7.73026 85.9928 7.73026 86.0313 7.73026C86.0956 7.73026 86.1597 7.71739 86.2241 7.69161C86.3141 7.65297 86.4041 7.58855 86.4554 7.49839C86.5069 7.4082 86.5454 7.31803 86.5454 7.21497C86.5454 7.1119 86.5197 7.00884 86.4554 6.93155C86.4169 6.82849 86.3397 6.76409 86.2369 6.72542Z" fill="#1A1A1A"/>
<path d="M74.1758 11.2498H74.4763V10.4164H74.7938C75.2247 10.4164 75.4599 10.2123 75.4599 9.83811C75.4599 9.46957 75.2275 9.27397 74.7938 9.27397H74.1758V11.2498ZM74.4763 10.1358V9.55461H74.7626C75.0347 9.55461 75.1538 9.64248 75.1538 9.84375C75.1538 10.0422 75.0319 10.1358 74.7626 10.1358H74.4763ZM76.8642 9.82676C76.7111 9.82676 76.5495 9.90613 76.4787 10.0819V9.85226H76.1838V11.2498H76.4758V10.5213C76.4758 10.2435 76.5977 10.1046 76.8075 10.1046C76.8727 10.1046 76.9266 10.1216 76.9804 10.1528L77.1222 9.89762C77.0371 9.84659 76.9549 9.82676 76.8642 9.82676ZM77.7777 9.58014H78.0896V9.27397H77.7777V9.58014ZM77.7891 11.2498H78.081V9.85226H77.7891V11.2498ZM79.5377 11.2754C79.9572 11.2754 80.2266 10.9493 80.2266 10.5496C80.2266 10.1471 79.9572 9.82676 79.5377 9.82676C79.1153 9.82676 78.846 10.1471 78.846 10.5496C78.846 10.9493 79.1153 11.2754 79.5377 11.2754ZM79.5377 11.0202C79.2656 11.0202 79.138 10.8076 79.138 10.5496C79.138 10.2917 79.2656 10.0819 79.5377 10.0819C79.807 10.0819 79.9346 10.2917 79.9346 10.5496C79.9346 10.8048 79.8098 11.0202 79.5377 11.0202ZM81.6743 9.82676C81.5213 9.82676 81.3597 9.90613 81.2888 10.0819V9.85226H80.994V11.2498H81.2859V10.5213C81.2859 10.2435 81.4079 10.1046 81.6176 10.1046C81.6828 10.1046 81.7367 10.1216 81.7905 10.1528L81.9323 9.89762C81.8472 9.84659 81.765 9.82676 81.6743 9.82676ZM82.5879 9.58014H82.8997V9.27397H82.5879V9.58014ZM82.5992 11.2498H82.8912V9.85226H82.5992V11.2498ZM84.4697 10.9975C84.4073 11.0174 84.3507 11.0287 84.3024 11.0287C84.1919 11.0287 84.1267 10.972 84.1267 10.853V10.0876H84.4697V9.85226H84.1267V9.33351L83.8347 9.55177V9.85226H83.6051V10.0876H83.8347V10.8785C83.8347 11.1591 84.0105 11.2754 84.2316 11.2754C84.3081 11.2754 84.3903 11.2612 84.4725 11.2357L84.4697 10.9975ZM85.2363 9.58014H85.5482V9.27397H85.2363V9.58014ZM85.2477 11.2498H85.5396V9.85226H85.2477V11.2498ZM87.4328 9.85226H86.3329V10.0989H87.0758L86.2961 11.0514V11.2498H87.4328V11.0032H86.6817L87.4328 10.0677V9.85226ZM89.3659 10.5156C89.3659 10.1499 89.1673 9.82676 88.7337 9.82676C88.2886 9.82676 88.0843 10.184 88.0843 10.5581C88.0843 10.9409 88.2941 11.2754 88.7563 11.2754C88.986 11.2754 89.1616 11.2016 89.3203 11.0287L89.1163 10.853C89.0113 10.972 88.8951 11.0117 88.7591 11.0117C88.521 11.0117 88.3876 10.8671 88.3764 10.6432H89.3571C89.3629 10.6007 89.3659 10.5581 89.3659 10.5156ZM88.3764 10.4079C88.3963 10.235 88.5095 10.0706 88.7337 10.0706C88.9404 10.0706 89.0795 10.2038 89.085 10.4022V10.4079H88.3764ZM91.3652 11.2498H91.6688V10.3767H92.5871V11.2498H92.8906V9.27397H92.5871V10.0961H91.6688V9.27397H91.3652V11.2498ZM94.998 10.5156C94.998 10.1499 94.7997 9.82676 94.3658 9.82676C93.921 9.82676 93.7167 10.184 93.7167 10.5581C93.7167 10.9409 93.9264 11.2754 94.3887 11.2754C94.6183 11.2754 94.794 11.2016 94.9527 11.0287L94.7487 10.853C94.6437 10.972 94.5275 11.0117 94.3914 11.0117C94.1533 11.0117 94.02 10.8671 94.0088 10.6432H94.9895C94.9952 10.6007 94.998 10.5581 94.998 10.5156ZM94.0088 10.4079C94.0287 10.235 94.1419 10.0706 94.3658 10.0706C94.5728 10.0706 94.7119 10.2038 94.7173 10.4022V10.4079H94.0088ZM96.2921 9.82676C96.0425 9.82676 95.8442 9.92314 95.6825 10.1216L95.8952 10.3002C96 10.1556 96.1361 10.0819 96.2891 10.0819C96.4734 10.0819 96.5839 10.1896 96.5839 10.371V10.4192H96.258C96.0594 10.4192 95.9291 10.4419 95.8328 10.4901C95.7081 10.5525 95.64 10.6715 95.64 10.8303C95.64 11.0968 95.8385 11.2754 96.1361 11.2754C96.3346 11.2754 96.4961 11.1932 96.5869 11.0514L96.6095 11.2498H96.876V10.371C96.876 10.0309 96.6548 9.82676 96.2921 9.82676ZM96.1901 11.0287C96.0313 11.0287 95.9321 10.955 95.9321 10.836C95.9321 10.7764 95.9517 10.7282 95.9942 10.6999C96.0482 10.6574 96.1303 10.6432 96.2921 10.6432H96.5839V10.6488C96.5839 10.87 96.4167 11.0287 96.1901 11.0287ZM98.022 11.2754C98.0871 11.2754 98.1611 11.2612 98.2317 11.2357V10.9975C98.1891 11.0117 98.1496 11.0174 98.1155 11.0174C98.0419 11.0174 98.0051 10.9805 98.0051 10.9068V9.27397H97.713V10.9267C97.713 11.1648 97.8406 11.2754 98.022 11.2754ZM99.6504 10.9975C99.588 11.0174 99.5312 11.0287 99.483 11.0287C99.3725 11.0287 99.3073 10.972 99.3073 10.853V10.0876H99.6504V9.85226H99.3073V9.33351L99.0152 9.55177V9.85226H98.7856V10.0876H99.0152V10.8785C99.0152 11.1591 99.1911 11.2754 99.4123 11.2754C99.4887 11.2754 99.571 11.2612 99.6531 11.2357L99.6504 10.9975ZM101.113 9.82676C100.923 9.82676 100.769 9.89762 100.679 10.0252V9.27397H100.387V11.2498H100.679V10.663C100.679 10.2662 100.789 10.0819 101.027 10.0819C101.215 10.0819 101.302 10.1924 101.302 10.4363V11.2498H101.594V10.3625C101.594 10.0167 101.424 9.82676 101.113 9.82676Z" fill="#1A1A1A"/>
</svg>
